<svg xmlns="http://www.w3.org/2000/svg" width="64" height="64" viewBox="0 0 64 64" fill="none">
  <rect width="64" height="64" rx="18" fill="#22003F"/>
  <rect x="4" y="4" width="56" height="56" rx="16" fill="url(#paint0_linear)"/>
  <path d="M24.4 36.7c-3 0-5.4-2.4-5.4-5.4s2.4-5.4 5.4-5.4h5.7v4h-5.7a1.4 1.4 0 1 0 0 2.8h5.7v4h-5.7Z" fill="#F8F1FF"/>
  <path d="M33.9 36.7v-4h5.7a1.4 1.4 0 1 0 0-2.8h-5.7v-4h5.7c3 0 5.4 2.4 5.4 5.4s-2.4 5.4-5.4 5.4h-5.7Z" fill="#F8F1FF"/>
  <path d="M27.2 33.4h9.6v-4h-9.6v4Z" fill="#BFA2FF"/>
  <path d="M18 45.8c0-5 4-9 9-9h10c5 0 9 4 9 9" stroke="#BFA2FF" stroke-width="4" stroke-linecap="round"/>
  <defs>
    <linearGradient id="paint0_linear" x1="10" y1="7" x2="58" y2="59" gradientUnits="userSpaceOnUse">
      <stop stop-color="#57068C"/>
      <stop offset="0.55" stop-color="#6D28D9"/>
      <stop offset="1" stop-color="#14B8A6"/>
    </linearGradient>
  </defs>
</svg>
